<?xml version="1.0" encoding="UTF-8"?>
<svg id="Layer_1" data-name="Layer 1" xmlns="http://www.w3.org/2000/svg" viewBox="0 0 433.33 200.67">
  <defs>
    <style>
      .cls-1 {
        fill: #404040;
        stroke-width: 0px;
      }
    </style>
  </defs>
  <polygon class="cls-1" points="304.58 151.87 315.02 162.32 348.78 128.51 382.58 162.32 392.98 151.87 348.78 107.67 304.58 151.87"/>
  <polygon class="cls-1" points="298.09 56.93 287.64 67.38 321.4 101.13 287.64 134.94 298.09 145.33 342.29 101.13 298.09 56.93"/>
  <polygon class="cls-1" points="416.07 128.03 422.39 121.71 401.87 101.13 422.39 80.61 416.07 74.24 389.17 101.13 416.07 128.03"/>
  <polygon class="cls-1" points="392.98 50.4 382.58 40 348.78 73.76 315.02 40 304.58 50.4 348.78 94.6 392.98 50.4"/>
  <polygon class="cls-1" points="399.51 145.33 409.96 134.94 376.16 101.13 409.96 67.38 399.51 56.93 355.31 101.13 399.51 145.33"/>
  <polygon class="cls-1" points="375.67 33.84 369.35 27.46 348.78 48.04 328.26 27.46 321.88 33.84 348.78 60.74 375.67 33.84"/>
  <polygon class="cls-1" points="321.88 168.48 328.26 174.8 348.78 154.28 369.35 174.8 375.67 168.48 348.78 141.58 321.88 168.48"/>
  <g>
    <path class="cls-1" d="m17.99,154.23c-.16.05-.38.11-.54.16-.21,0-.38.05-.59.11-.21,0-.38,0-.54,0-.48,0-.96-.11-1.45-.27-.43-.16-.86-.43-1.18-.75-.32-.32-.59-.75-.8-1.18-.21-.48-.27-1.02-.27-1.55,0-.54.11-1.07.27-1.5.16-.48.43-.86.75-1.23.32-.32.7-.59,1.18-.8s.96-.27,1.5-.27c.54,0,1.39.16,2.04.54l.11-1.34c-.38-.16-.7-.27-1.07-.32-.38-.05-.75-.11-1.13-.11-.75,0-1.45.11-2.04.38-.64.21-1.18.59-1.61,1.02-.48.43-.8.96-1.07,1.55s-.38,1.29-.38,2.04c0,.75.11,1.5.38,2.09.27.64.59,1.18,1.02,1.61.43.43.96.8,1.61,1.02s1.34.38,2.09.38c.75,0,.64,0,1.07-.05.21,0,.43,0,.59-.11.21,0,.38-.11.59-.21l-.11-1.34c-.11.05-.27.16-.43.21v-.05Z"/>
    <path class="cls-1" d="m27.85,147.1c-.43-.43-.91-.8-1.45-1.07-.59-.27-1.23-.38-1.98-.38-.75,0-1.39.11-1.98.38-.59.27-1.07.59-1.45,1.07-.38.43-.7.96-.91,1.61-.21.59-.32,1.29-.32,1.98,0,.7.11,1.45.32,2.04.21.64.54,1.13.91,1.61.38.43.91.8,1.45,1.02.59.27,1.23.38,1.98.38s1.39-.11,1.98-.38c.59-.27,1.07-.59,1.45-1.02.38-.43.7-.96.91-1.61.21-.64.32-1.29.32-2.04,0-.75-.11-1.39-.32-1.98-.21-.59-.54-1.13-.91-1.61Zm-.43,4.98c-.11.48-.32.86-.59,1.23-.27.38-.59.64-1.02.86-.43.21-.86.32-1.45.32-.59,0-1.02-.11-1.45-.32s-.75-.48-1.02-.86c-.27-.38-.43-.75-.59-1.23-.11-.48-.16-.91-.16-1.39,0-.48.05-.96.21-1.45.11-.48.32-.86.59-1.23.27-.38.59-.64,1.02-.86.38-.21.86-.32,1.39-.32.54,0,1.02.11,1.39.32.43.21.75.48,1.02.86.27.38.48.75.59,1.23.11.48.21.96.21,1.45,0,.48-.05.96-.21,1.39h.05Z"/>
    <polygon class="cls-1" points="36.42 153.91 33.37 145.82 31.06 145.82 31.06 155.57 32.46 155.57 32.46 147.1 32.46 147.1 35.72 155.57 37.06 155.57 40.28 147.1 40.33 147.1 40.33 155.57 41.72 155.57 41.72 145.82 39.42 145.82 36.42 153.91"/>
    <path class="cls-1" d="m49.28,146.46c-.32-.21-.7-.38-1.18-.48-.43-.11-.91-.16-1.39-.16h-2.57s0,9.75,0,9.75h1.39s0-3.91,0-3.91h1.34c.43,0,.86,0,1.29-.16.43-.11.8-.27,1.13-.48.32-.21.59-.54.75-.91.21-.38.27-.8.27-1.34,0-.54-.11-1.02-.27-1.39-.21-.38-.48-.7-.8-.91h.05Zm-.59,3.05c-.11.21-.27.38-.48.54-.21.16-.38.21-.64.27-.21.05-.43.11-.7.11h-1.39v-3.38h1.18c.21,0,.43,0,.7.11.27.05.48.16.7.27.21.11.38.32.54.54.16.21.21.48.21.8,0,.32-.05.59-.16.8l.05-.05Z"/>
    <polygon class="cls-1" points="52.06 155.57 57.53 155.57 57.53 154.34 53.46 154.34 53.46 151.12 57.15 151.12 57.15 149.89 53.46 149.89 53.46 147.05 57.53 147.05 57.53 145.82 52.06 145.82 52.06 155.57"/>
    <polygon class="cls-1" points="58.65 147.05 61.71 147.05 61.71 155.57 63.1 155.57 63.1 147.05 66.1 147.05 66.1 145.82 58.65 145.82 58.65 147.05"/>
    <rect class="cls-1" x="67.49" y="145.82" width="1.39" height="9.75"/>
    <polygon class="cls-1" points="70.28 147.05 73.33 147.05 73.33 155.57 74.73 155.57 74.73 147.05 77.78 147.05 77.78 145.82 70.28 145.82 70.28 147.05"/>
    <rect class="cls-1" x="79.17" y="145.82" width="1.39" height="9.75"/>
    <path class="cls-1" d="m90.69,147.1c-.43-.43-.91-.8-1.45-1.07-.59-.27-1.23-.38-1.98-.38-.75,0-1.39.11-1.98.38-.59.27-1.07.59-1.45,1.07-.38.43-.7.96-.91,1.61-.21.59-.32,1.29-.32,1.98,0,.7.11,1.45.32,2.04.21.64.54,1.13.91,1.61.38.43.91.8,1.45,1.02.59.27,1.23.38,1.98.38.75,0,1.39-.11,1.98-.38.59-.27,1.07-.59,1.45-1.02.38-.43.7-.96.91-1.61.21-.64.32-1.29.32-2.04,0-.75-.11-1.39-.32-1.98-.21-.59-.54-1.13-.91-1.61Zm-.43,4.98c-.11.48-.32.86-.59,1.23-.27.38-.59.64-1.02.86-.43.21-.86.32-1.45.32-.59,0-1.02-.11-1.45-.32-.43-.21-.75-.48-1.02-.86s-.43-.75-.59-1.23c-.11-.48-.16-.91-.16-1.39,0-.48.05-.96.21-1.45.16-.48.32-.86.59-1.23.27-.38.59-.64,1.02-.86.38-.21.86-.32,1.39-.32.54,0,1.02.11,1.39.32.43.21.75.48,1.02.86.27.38.48.75.59,1.23.11.48.21.96.21,1.45,0,.48-.05.96-.16,1.39Z"/>
    <polygon class="cls-1" points="100.12 153.64 100.07 153.64 95.78 145.82 93.86 145.82 93.85 155.57 95.25 155.57 95.25 147.53 95.3 147.53 99.69 155.57 101.52 155.57 101.52 145.82 100.12 145.82 100.12 153.64"/>
    <rect class="cls-1" x="107.84" y="145.82" width="1.39" height="9.75"/>
    <polygon class="cls-1" points="117.96 153.64 117.91 153.64 113.63 145.82 111.7 145.82 111.7 155.57 113.09 155.57 113.09 147.53 113.14 147.53 117.54 155.57 119.36 155.57 119.36 145.82 117.96 145.82 117.96 153.64"/>
    <polygon class="cls-1" points="128.04 153.64 127.98 153.64 123.7 145.82 121.82 145.82 121.82 155.57 123.22 155.57 123.22 147.53 123.22 147.53 127.61 155.57 129.43 155.57 129.43 145.82 128.04 145.82 128.04 153.64"/>
    <path class="cls-1" d="m139.5,147.1c-.43-.43-.91-.8-1.45-1.07-.59-.27-1.23-.38-1.98-.38-.75,0-1.39.11-1.98.38-.59.27-1.07.59-1.45,1.07s-.7.96-.91,1.61c-.21.59-.32,1.29-.32,1.98,0,.7.11,1.45.32,2.04.21.64.54,1.13.91,1.61.38.43.91.8,1.45,1.02.59.27,1.23.38,1.98.38.75,0,1.39-.11,1.98-.38.59-.27,1.07-.59,1.45-1.02.38-.43.7-.96.91-1.61.21-.64.32-1.29.32-2.04,0-.75-.11-1.39-.32-1.98s-.54-1.13-.91-1.61Zm-.38,4.98c-.11.48-.32.86-.59,1.23-.27.38-.59.64-1.02.86-.43.21-.86.32-1.45.32-.59,0-1.02-.11-1.45-.32-.43-.21-.75-.48-1.02-.86-.27-.38-.43-.75-.59-1.23-.11-.48-.16-.91-.16-1.39s.05-.96.21-1.45c.16-.48.32-.86.59-1.23.27-.38.59-.64,1.02-.86.38-.21.86-.32,1.39-.32s1.02.11,1.39.32c.43.21.75.48,1.02.86.27.38.48.75.59,1.23s.21.96.21,1.45c0,.48-.05.96-.16,1.39Z"/>
    <polygon class="cls-1" points="149.25 145.82 146.2 154.34 146.15 154.34 143.15 145.82 141.59 145.82 145.29 155.57 147 155.57 150.75 145.82 149.25 145.82"/>
    <path class="cls-1" d="m154.61,145.82l-4.18,9.75h1.45s.96-2.46.96-2.46h4.77s1.02,2.46,1.02,2.46h1.5s-4.13-9.75-4.13-9.75h-1.45s.05,0,.05,0Zm-1.23,6.11l1.93-4.82,1.93,4.82h-3.86Z"/>
    <polygon class="cls-1" points="159.49 147.05 162.54 147.05 162.54 155.57 163.93 155.57 163.93 147.05 166.93 147.05 166.93 145.82 159.49 145.82 159.49 147.05"/>
    <rect class="cls-1" x="168.38" y="145.82" width="1.39" height="9.75"/>
    <path class="cls-1" d="m179.85,147.1c-.43-.43-.91-.8-1.45-1.07-.59-.27-1.23-.38-1.98-.38-.75,0-1.39.11-1.98.38-.59.27-1.07.59-1.45,1.07-.38.43-.7.96-.91,1.61-.21.59-.32,1.29-.32,1.98,0,.7.11,1.45.32,2.04.21.64.54,1.13.91,1.61.38.43.91.8,1.45,1.02.59.27,1.23.38,1.98.38.75,0,1.39-.11,1.98-.38.59-.27,1.07-.59,1.45-1.02.38-.43.7-.96.91-1.61.21-.64.32-1.29.32-2.04s-.11-1.39-.32-1.98c-.21-.59-.54-1.13-.91-1.61Zm-.38,4.98c-.11.48-.32.86-.59,1.23-.27.38-.59.64-1.02.86-.43.21-.86.32-1.45.32-.59,0-1.02-.11-1.45-.32-.43-.21-.75-.48-1.02-.86-.27-.38-.43-.75-.59-1.23-.11-.48-.21-.91-.21-1.39,0-.48.05-.96.21-1.45.16-.48.32-.86.59-1.23.27-.38.59-.64,1.02-.86.38-.21.86-.32,1.39-.32.54,0,1.02.11,1.39.32.43.21.75.48,1.02.86s.48.75.59,1.23.21.96.21,1.45-.05.96-.16,1.39h.05Z"/>
    <polygon class="cls-1" points="189.33 153.64 189.28 153.64 184.99 145.82 183.06 145.82 183.06 155.57 184.45 155.57 184.45 147.53 184.51 147.53 188.9 155.57 190.72 155.57 190.72 145.82 189.33 145.82 189.33 153.64"/>
    <path class="cls-1" d="m202.08,146.46c-.32-.21-.7-.38-1.18-.48-.43-.11-.91-.16-1.39-.16h-2.57s0,9.75,0,9.75h1.39s0-3.91,0-3.91h1.34c.43,0,.86,0,1.29-.16.43-.11.8-.27,1.13-.48s.59-.54.75-.91c.21-.38.27-.8.27-1.34,0-.54-.11-1.02-.27-1.39-.21-.38-.48-.7-.8-.91h.05Zm-.59,3.05c-.11.21-.27.38-.48.54-.21.16-.38.21-.64.27-.21.05-.43.11-.7.11h-1.39v-3.38h1.18c.21,0,.43,0,.7.11.27.05.48.16.7.27.21.11.38.32.54.54.16.21.21.48.21.8,0,.32-.05.59-.16.8l.05-.05Z"/>
    <path class="cls-1" d="m209.42,151.01c-.05-.05-.16-.11-.21-.16-.11-.05-.16-.11-.27-.16h0c.27-.05.54-.16.8-.27s.48-.27.64-.48c.16-.21.32-.43.43-.64.11-.27.16-.54.16-.8s0-.54-.11-.8c-.05-.21-.16-.43-.21-.59-.11-.16-.21-.32-.38-.48-.16-.11-.32-.27-.48-.32-.16-.11-.38-.16-.59-.21s-.43-.11-.64-.16c-.21,0-.43-.05-.7-.05h-.7s-2.41,0-2.41,0v9.75s1.39,0,1.39,0v-4.34h.86c.21,0,.38,0,.54,0s.27,0,.43.11c.11.05.27.16.38.27s.21.32.32.54l1.5,3.38h1.61s-1.82-3.86-1.82-3.86c-.16-.32-.32-.54-.43-.64l-.11-.05Zm-2.09-1.02h-1.18v-2.95h1.34c.64,0,1.13.11,1.45.38.32.27.48.59.48,1.07,0,.48-.16.86-.54,1.13s-.91.43-1.55.43v-.05Z"/>
    <path class="cls-1" d="m220.99,147.1c-.43-.43-.91-.8-1.45-1.07-.59-.27-1.23-.38-1.98-.38-.75,0-1.39.11-1.98.38s-1.07.59-1.45,1.07c-.38.43-.7.96-.91,1.61-.21.59-.32,1.29-.32,1.98s.11,1.45.32,2.04c.21.64.54,1.13.91,1.61.38.43.91.8,1.45,1.02.59.27,1.23.38,1.98.38.75,0,1.39-.11,1.98-.38.59-.27,1.07-.59,1.45-1.02.38-.43.7-.96.91-1.61.21-.64.32-1.29.32-2.04,0-.75-.11-1.39-.32-1.98-.21-.59-.54-1.13-.91-1.61Zm-.43,4.98c-.11.48-.32.86-.59,1.23-.27.38-.59.64-1.02.86-.38.21-.86.32-1.45.32-.59,0-1.02-.11-1.45-.32-.43-.21-.75-.48-1.02-.86-.27-.38-.43-.75-.59-1.23-.11-.48-.16-.91-.16-1.39,0-.48.05-.96.21-1.45.16-.48.32-.86.59-1.23.27-.38.59-.64,1.02-.86.38-.21.86-.32,1.39-.32.54,0,1.02.11,1.39.32.43.21.75.48,1.02.86.27.38.48.75.59,1.23.11.48.21.96.21,1.45s-.05.96-.16,1.39Z"/>
    <path class="cls-1" d="m228.39,151.39h2.04v2.95c-.11,0-.16,0-.27.05-.11,0-.16,0-.32.05-.11,0-.27,0-.43,0s-.38,0-.59,0c-.48,0-.96-.11-1.45-.27-.43-.16-.86-.43-1.18-.75s-.59-.75-.8-1.18c-.21-.48-.27-1.02-.27-1.55,0-.54.05-1.02.27-1.5.16-.48.43-.86.75-1.23.32-.32.75-.59,1.18-.8.48-.21.96-.27,1.5-.27.64,0,1.18.05,1.55.16.43.11.8.27,1.13.48l.11-1.39c-.21-.05-.43-.11-.59-.21-.21-.05-.38-.11-.59-.16-.21,0-.48-.11-.7-.11-.27,0-.59,0-.91,0-.75,0-1.45.11-2.04.38-.64.21-1.18.59-1.61,1.02-.48.43-.8.96-1.07,1.55-.27.59-.38,1.29-.38,2.04s.11,1.5.38,2.09c.27.64.59,1.18,1.02,1.61s.96.8,1.61,1.02,1.34.38,2.09.38q.75,0,1.02,0c.32,0,.59-.05.8-.11.48-.11.86-.21,1.13-.27v-5.09s-3.43,0-3.43,0v1.13s.05,0,.05,0Z"/>
    <path class="cls-1" d="m238.89,151.01c-.05-.05-.16-.11-.21-.16-.11-.05-.16-.11-.27-.16h0c.27-.05.54-.16.8-.27s.48-.27.64-.48c.16-.21.32-.43.43-.64.11-.27.16-.54.16-.8s0-.54-.11-.8c-.05-.21-.16-.43-.21-.59-.11-.16-.21-.32-.38-.48-.16-.11-.32-.27-.48-.32-.16-.11-.38-.16-.59-.21s-.43-.11-.64-.16c-.21,0-.43-.05-.7-.05h-.7s-2.41,0-2.41,0v9.75s1.39,0,1.39,0v-4.34h.86c.21,0,.38,0,.54,0,.16,0,.27,0,.43.11.11.05.27.16.38.27s.21.32.32.54l1.5,3.38h1.61s-1.82-3.86-1.82-3.86c-.16-.32-.32-.54-.43-.64l-.11-.05Zm-2.09-1.02h-1.18v-2.95h1.34c.64,0,1.13.11,1.45.38.32.27.48.59.48,1.07,0,.48-.16.86-.54,1.13-.38.27-.91.43-1.55.43v-.05Z"/>
    <path class="cls-1" d="m245.91,145.82l-4.18,9.75h1.45s.96-2.46.96-2.46h4.77s1.02,2.46,1.02,2.46h1.5s-4.13-9.75-4.13-9.75h-1.45s.05,0,.05,0Zm-1.29,6.11l1.93-4.82,1.93,4.82h-3.86Z"/>
    <polygon class="cls-1" points="258.28 153.91 255.23 145.82 252.93 145.82 252.93 155.57 254.32 155.57 254.32 147.1 254.32 147.1 257.53 155.57 258.93 155.57 262.14 147.1 262.2 147.1 262.2 155.57 263.59 155.57 263.59 145.82 261.28 145.82 258.28 153.91"/>
    <path class="cls-1" d="m17.35,84.47c1.34-.59,2.46-1.34,3.32-2.36.86-.96,1.5-2.2,1.88-3.64.38-1.45.59-3.21.59-5.25v-13.45s-5.46,0-5.46,0v14.52c0,.96-.05,1.82-.21,2.57-.16.75-.43,1.39-.86,1.93-.43.54-1.02,1.02-1.77,1.34-.75.38-1.77.64-2.95.91l.7,4.66c1.88-.32,3.54-.75,4.88-1.29l-.11.05Z"/>
    <path class="cls-1" d="m30.15,75.15c.54.59,1.23,1.07,2.09,1.45.86.32,1.82.48,3,.48h26.09c1.66,0,3.05-.21,4.18-.59,1.13-.43,2.04-.96,2.79-1.66.8.7,1.71,1.23,2.84,1.66.75.27,1.66.48,2.63.59h.05c.21,0,.48,0,.8,0h33.65c1.07,0,1.93-.16,2.68-.48.75-.32,1.34-.75,1.82-1.29.75.54,1.61.96,2.63,1.23.64.21,1.34.32,2.14.43h.05c.21,0,.48,0,.8,0h20.09s0-17.31,0-17.31h-5.46s0,12.64,0,12.64h-14.04c-.86,0-1.66-.05-2.46-.21-.8-.16-1.55-.38-2.2-.64,0-.21,0-.48.05-.75,0-.27,0-.48,0-.75v-10.34s-5.46,0-5.46,0v9.59c0,.59,0,1.07-.16,1.5-.11.38-.27.7-.43.96-.21.21-.48.38-.8.48s-.75.16-1.18.16h-31.13c-.96,0-1.93-.11-2.84-.27-.91-.16-1.71-.48-2.46-.86.11-.48.11-.96.11-1.5,0-.91-.11-1.77-.38-2.57-.27-.8-.7-1.61-1.23-2.36-.54-.75-1.23-1.55-2.04-2.3-.8-.75-1.77-1.55-2.89-2.36l6.43-11.09-4.02-2.57-9.11,15.32c1.29.75,2.41,1.5,3.43,2.2s1.88,1.34,2.57,1.98c.7.64,1.23,1.29,1.61,1.88.38.59.54,1.23.54,1.82,0,.59-.05.75-.16,1.13-.11.32-.32.59-.64.86-.32.21-.75.43-1.29.54-.54.11-1.23.21-2.09.21h-24.27c-.43,0-.8,0-1.13-.16-.32-.11-.59-.27-.8-.54-.21-.27-.38-.64-.48-1.07-.11-.48-.16-1.02-.16-1.71v-22.13s-5.46,0-5.46,0v23.25c0,1.02.11,1.98.38,2.84.27.86.64,1.61,1.18,2.2l.16.11Z"/>
    <path class="cls-1" d="m106.45,53.77c.27.27.54.43.86.59.32.16.7.21,1.07.21.38,0,.75-.05,1.07-.21.32-.16.59-.32.86-.59.27-.27.43-.54.59-.86.16-.32.21-.7.21-1.07,0-.38-.05-.75-.21-1.07-.16-.32-.32-.59-.59-.86-.27-.27-.54-.43-.86-.59s-.7-.21-1.07-.21-.75.05-1.07.21c-.32.16-.59.32-.86.59s-.43.54-.59.86-.21.7-.21,1.07c0,.38.05.75.21,1.07.16.32.32.59.59.86Z"/>
    <path class="cls-1" d="m112.77,53.77c.27.27.54.43.86.59s.7.21,1.07.21.75-.05,1.07-.21c.32-.16.59-.32.86-.59.27-.27.43-.54.59-.86s.21-.7.21-1.07-.05-.75-.21-1.07c-.16-.32-.32-.59-.59-.86-.27-.27-.54-.43-.86-.59s-.7-.21-1.07-.21c-.38,0-.75.05-1.07.21-.32.16-.59.32-.86.59s-.43.54-.59.86c-.16.32-.21.7-.21,1.07,0,.38.05.75.21,1.07.16.32.32.59.59.86Z"/>
    <rect class="cls-1" x="144.06" y="46.81" width="5.46" height="30.27"/>
    <path class="cls-1" d="m165.01,87.79c.38.7.86,1.39,1.45,2.04.59.64,1.34,1.18,2.14,1.66.86.48,1.82.86,2.89,1.13,1.07.27,2.3.38,3.7.38,1.39,0,.91,0,1.34,0,.43,0,.8-.11,1.23-.16.43-.05.86-.16,1.29-.27.43-.11.91-.21,1.45-.32v-4.29c-.86.16-1.77.32-2.63.48-.91.11-1.66.21-2.3.21-1.13,0-2.09-.16-2.89-.48-.8-.32-1.5-.75-1.98-1.23-.54-.54-.91-1.13-1.18-1.82-.27-.7-.38-1.39-.38-2.2,0-.8.16-1.82.43-2.57.27-.75.7-1.34,1.18-1.82.54-.48,1.13-.86,1.82-1.07.7-.21,1.5-.38,2.41-.38h12.86c2.41,0,4.18-.86,5.41-2.63.38.32.8.7,1.29,1.02.48.32,1.02.64,1.66.91.64.27,1.34.48,2.09.64.8.16,1.66.27,2.68.27s2.63-.21,3.7-.7c1.07-.48,1.98-1.13,2.73-1.88.75-.75,1.29-1.66,1.66-2.68.38-1.02.59-2.09.59-3.16,0-1.07-.11-1.39-.27-2.14-.16-.75-.43-1.45-.75-2.14-.32-.7-.75-1.34-1.23-1.98-.48-.64-1.07-1.18-1.77-1.61-.7-.48-1.45-.86-2.3-1.13-.86-.27-1.82-.43-2.84-.43-1.02,0-1.55.11-2.46.38s-1.82.75-2.79,1.55c-.96.75-1.88,1.88-2.73,3.27-.91,1.39-1.66,3.27-2.36,5.57-.21.75-.64,1.34-1.13,1.71-.54.38-1.13.54-1.82.54h-.8c-.54,0-.96-.16-1.29-.54-.32-.38-.59-.86-.86-1.5-.21-.64-.38-1.34-.54-2.14s-.27-1.61-.38-2.41c-.16-1.13-.43-2.09-.86-3-.43-.91-.96-1.66-1.66-2.3-.7-.64-1.5-1.13-2.46-1.45-.96-.32-2.04-.48-3.21-.48-1.18,0-2.3.11-3.32.32-.96.21-1.98.48-2.95.75v4.34c.48-.21.96-.38,1.45-.48.48-.11.96-.27,1.45-.32.48-.05.91-.16,1.29-.21.43,0,.75-.05,1.02-.05.91,0,1.66.21,2.2.59.54.38.96.86,1.29,1.45.32.59.54,1.23.64,1.93s.27,1.39.32,2.04c.11.86.27,1.55.43,2.09.16.54.32,1.02.54,1.34h-4.18c-1.71,0-3.27.21-4.66.7-1.39.48-2.57,1.18-3.59,2.09-1.02.91-1.77,2.04-2.3,3.38-.54,1.34-.8,2.89-.8,4.61,0,1.71.11,1.5.27,2.3.16.75.43,1.5.86,2.25l-.05.05Zm30.59-19.34c.32-.86.7-1.66,1.18-2.3.43-.7.96-1.23,1.5-1.61.59-.43,1.18-.64,1.88-.64s1.34.16,1.88.48c.54.32,1.02.75,1.34,1.23.38.48.64,1.02.8,1.61.16.59.27,1.13.27,1.61,0,.75-.11,1.34-.32,1.88-.21.48-.54.91-.91,1.23-.38.32-.86.54-1.45.7-.54.16-1.18.21-1.88.21-.7,0-.96,0-1.45-.16-.48-.16-1.02-.21-1.5-.38-.48-.16-.91-.32-1.29-.54-.38-.21-.64-.38-.86-.59.16-.91.43-1.82.75-2.68l.05-.05Z"/>
    <path class="cls-1" d="m215.74,75.15c.54.59,1.23,1.07,2.09,1.45.86.32,1.82.48,3,.48h13.13s0-17.31,0-17.31h-5.46s0,12.64,0,12.64h-6.32c-.43,0-.8,0-1.13-.16s-.59-.27-.8-.54-.38-.64-.48-1.07c-.11-.48-.16-1.02-.16-1.71v-22.13s-5.46,0-5.46,0v23.25c0,1.02.11,1.98.38,2.84.27.86.64,1.61,1.18,2.2l.05.05Z"/>
    <path class="cls-1" d="m229.25,53.77c.27.27.54.43.86.59.32.16.7.21,1.07.21s.75-.05,1.07-.21c.32-.16.59-.32.86-.59.27-.27.43-.54.59-.86.16-.32.21-.7.21-1.07,0-.38-.05-.75-.21-1.07-.16-.32-.32-.59-.59-.86s-.54-.43-.86-.59-.7-.21-1.07-.21-.75.05-1.07.21c-.32.16-.59.32-.86.59s-.43.54-.59.86c-.16.32-.21.7-.21,1.07,0,.38.05.75.21,1.07.16.32.32.59.59.86Z"/>
    <path class="cls-1" d="m242.69,84.74c1.18-.43,2.2-1.02,3-1.66.86-.7,1.5-1.5,2.04-2.52.54-1.02.86-2.14,1.13-3.48h15.22s0-17.31,0-17.31h-5.46s0,12.64,0,12.64h-9.48s0-12.64,0-12.64h-5.46s0,14.52,0,14.52c0,.96-.05,1.82-.21,2.57-.16.75-.43,1.39-.86,1.93-.43.54-1.02,1.02-1.77,1.34-.75.38-1.77.64-2.95.91l.7,4.66c1.55-.21,2.95-.59,4.07-1.02l.05.05Z"/>
    <path class="cls-1" d="m22.33,100.65c-.27-.27-.54-.43-.86-.59-.32-.16-.7-.21-1.07-.21-.38,0-.75.05-1.07.21s-.59.32-.86.59c-.27.27-.43.54-.59.86-.16.32-.21.7-.21,1.07,0,.38.05.75.21,1.07.16.32.32.59.59.86s.54.43.86.59c.32.16.7.21,1.07.21s.75-.05,1.07-.21c.32-.16.59-.32.86-.59s.43-.54.59-.86c.16-.32.21-.7.21-1.07,0-.38-.05-.75-.21-1.07-.16-.32-.32-.59-.59-.86Z"/>
    <path class="cls-1" d="m24.85,104.45c.27.27.54.43.86.59.32.16.7.21,1.07.21.38,0,.75-.05,1.07-.21.32-.16.59-.32.86-.59.27-.27.43-.54.59-.86.16-.32.21-.7.21-1.07,0-.38-.05-.75-.21-1.07s-.32-.59-.59-.86c-.27-.27-.54-.43-.86-.59-.32-.16-.7-.21-1.07-.21-.38,0-.75.05-1.07.21s-.59.32-.86.59c-.27.27-.43.54-.59.86-.16.32-.21.7-.21,1.07,0,.38.05.75.21,1.07.16.32.32.59.59.86Z"/>
    <path class="cls-1" d="m115.39,128.35c.32.11.7.16,1.07.27.11.05.27.16.43.16.21,0,.48,0,.8,0h67.45s0-9.11,0-9.11c0-1.39-.21-2.68-.59-3.8-.38-1.13-.96-2.04-1.71-2.84-.75-.75-1.66-1.34-2.73-1.77-1.07-.43-2.3-.59-3.64-.59-1.34,0-2.68.21-3.8.7-1.18.48-2.2,1.13-3.05,1.93-.86.8-1.5,1.77-1.98,2.89-.48,1.13-.7,2.3-.7,3.59,0,1.29.11,1.61.32,2.41.21.8.48,1.45.8,1.98h-48.92c-.86,0-1.66-.05-2.46-.21-.8-.16-1.55-.38-2.2-.64,0-.21,0-.48.05-.75,0-.27,0-.48,0-.75v-10.34s-5.46,0-5.46,0v9.59c0,.59,0,1.07-.16,1.5-.11.38-.27.7-.43.96-.21.21-.48.38-.8.48-.32.11-.75.16-1.18.16-.7,0-1.45-.11-2.2-.32-.75-.21-1.5-.54-2.25-.96,0-.16,0-.32,0-.54,0-.21,0-.32,0-.54v-8.04s-5.46,0-5.46,0v7.29c0,.59,0,1.07-.16,1.5-.11.38-.27.7-.43.96-.21.21-.48.38-.8.48-.32.11-.75.16-1.18.16-.7,0-1.45-.11-2.2-.32-.75-.21-1.55-.54-2.3-.96,0-.16,0-.32,0-.48v-6.64s-5.46,0-5.46,0v5.41c0,.59,0,1.07-.16,1.5-.11.38-.27.7-.43.96-.21.21-.48.38-.8.48-.32.11-.75.16-1.18.16h-4.34c-.11,0-.21,0-.27,0-.11,0-.16,0-.27,0H31.97c-.43,0-.8,0-1.02-.11-.27-.11-.48-.21-.59-.43-.16-.21-.27-.48-.32-.8,0-.32-.05-.75-.05-1.23v-13.61s-5.41,0-5.41,0v2.36c-.8.21-1.71.43-2.68.7-.96.27-1.93.64-2.89,1.02-.96.38-1.93.86-2.84,1.39-.91.54-1.71,1.13-2.41,1.82-.7.7-1.29,1.45-1.71,2.3-.43.86-.64,1.82-.64,2.89,0,1.07.27,2.25.75,3.11.48.86,1.13,1.55,1.93,2.14.8.54,1.66.96,2.63,1.23.96.27,1.93.38,2.84.38.91,0,1.82-.11,2.68-.32s1.77-.54,2.68-1.02c.16.38.43.75.75,1.07.32.32.7.64,1.18.86.48.27,1.07.43,1.77.59.7.16,1.5.21,2.46.21h45.59c.11,0,.21,0,.27,0,.11,0,.16,0,.27,0h6.21c1.18,0,2.2-.21,2.95-.59.8-.38,1.45-.91,1.93-1.55.8.64,1.82,1.18,2.95,1.55,1.13.38,2.41.59,3.8.59h.91c1.18,0,2.2-.21,2.95-.59.8-.38,1.39-.91,1.93-1.55.8.64,1.82,1.13,2.89,1.55,1.13.38,2.36.59,3.75.59h.91c1.07,0,1.93-.16,2.68-.48.75-.32,1.34-.75,1.82-1.29.75.54,1.61.96,2.63,1.23l-.11.05Zm56.95-10.39c.21-.54.48-1.02.8-1.45.32-.38.75-.7,1.23-.96.48-.21.96-.32,1.5-.32.54,0,.96.11,1.39.27.43.16.86.48,1.18.91.32.43.64.96.86,1.66.21.7.32,1.55.32,2.57v3.64h-2.73c-.75,0-1.45-.11-2.04-.32-.59-.21-1.13-.54-1.5-.91-.43-.38-.75-.86-.96-1.39-.21-.54-.32-1.13-.32-1.82,0-.7.11-1.29.32-1.82l-.05-.05Zm-148.03,3.86c-.54.38-1.23.64-1.98.91-.75.21-1.5.32-2.3.32s-.86,0-1.29-.16c-.43-.11-.8-.27-1.18-.48-.32-.21-.64-.54-.86-.91-.21-.38-.32-.86-.32-1.39s.16-1.29.54-1.82c.38-.54.91-1.07,1.61-1.5s1.55-.86,2.52-1.18c.96-.32,2.04-.64,3.27-.91v7.13Z"/>
    <path class="cls-1" d="m177.6,101.13c-.32-.16-.7-.21-1.07-.21-.38,0-.75.05-1.07.21s-.59.32-.86.59c-.27.27-.43.54-.59.86-.16.32-.21.7-.21,1.07,0,.38.05.75.21,1.07.16.32.32.59.59.86.27.27.54.43.86.59.32.16.7.21,1.07.21s.75-.05,1.07-.21.59-.32.86-.59.43-.54.59-.86c.16-.32.21-.7.21-1.07s-.05-.75-.21-1.07c-.16-.32-.32-.59-.59-.86s-.54-.43-.86-.59Z"/>
    <path class="cls-1" d="m207.76,101.13c-.32-.16-.7-.21-1.07-.21-.38,0-.75.05-1.07.21s-.59.32-.86.59-.43.54-.59.86c-.16.32-.21.7-.21,1.07s.05.75.21,1.07c.16.32.32.59.59.86s.54.43.86.59c.32.16.7.21,1.07.21s.75-.05,1.07-.21c.32-.16.59-.32.86-.59.27-.27.43-.54.59-.86.16-.32.21-.7.21-1.07,0-.38-.05-.75-.21-1.07s-.32-.59-.59-.86-.54-.43-.86-.59Z"/>
    <path class="cls-1" d="m236.75,127.39c.48.32,1.02.54,1.55.8.54.27,1.23.38,1.93.54.59.11,1.23.16,1.93.16h.21c.05,0,.16,0,.21,0h10.55s0-30.27,0-30.27h-5.46s0,25.66,0,25.66h-5.04c-1.02,0-1.98-.11-2.89-.27-.91-.21-1.77-.48-2.52-.91.11-.38.21-.8.27-1.18.05-.43.11-.8.11-1.23,0-.7-.11-1.39-.27-2.14-.16-.75-.43-1.45-.75-2.14-.32-.7-.75-1.34-1.23-1.98-.48-.64-1.07-1.18-1.77-1.61-.7-.48-1.45-.86-2.3-1.13-.86-.27-1.82-.43-2.84-.43-1.02,0-1.55.11-2.46.38-.91.27-1.82.75-2.79,1.55-.96.75-1.88,1.88-2.73,3.27-.91,1.39-1.66,3.27-2.36,5.57-.21.75-.64,1.34-1.13,1.71-.54.38-1.13.54-1.82.54h-1.02c-.86,0-1.66-.05-2.46-.21-.8-.16-1.55-.38-2.2-.64,0-.21,0-.48.05-.75,0-.27,0-.48,0-.75v-10.34s-5.46,0-5.46,0v9.59c0,.59,0,1.07-.16,1.5-.11.38-.27.7-.43.96-.21.21-.48.38-.8.48-.32.11-.75.16-1.18.16h-3.32c-.43,0-.8,0-1.13-.16s-.59-.27-.8-.54c-.21-.27-.38-.64-.48-1.07-.11-.48-.16-1.02-.16-1.71v-22.13s-5.46,0-5.46,0v23.25c0,1.02.11,1.98.38,2.84.27.86.64,1.61,1.18,2.2.54.59,1.23,1.07,2.09,1.45.86.32,1.82.48,3,.48h6.54c1.07,0,1.93-.16,2.68-.48.75-.32,1.34-.75,1.82-1.29.75.54,1.61.96,2.63,1.23.96.32,2.2.48,3.59.48h1.77c2.41,0,4.18-.86,5.41-2.63.38.32.8.7,1.29,1.02.48.32,1.02.64,1.66.91.64.27,1.34.48,2.09.64.8.16,1.66.27,2.68.27,1.45,0,2.68-.27,3.75-.75,1.07-.48,1.98-1.13,2.73-1.98.38.38.8.7,1.29.96l.05.11Zm-4.55-4.98c-.21.48-.54.91-.91,1.23-.38.32-.86.54-1.45.7-.54.16-1.18.21-1.88.21s-.96,0-1.45-.16c-.48-.16-1.02-.21-1.5-.38-.48-.16-.91-.32-1.29-.54-.38-.21-.64-.38-.86-.59.16-.91.43-1.82.75-2.68.32-.86.7-1.66,1.18-2.3.43-.7.96-1.23,1.5-1.61.59-.43,1.18-.64,1.88-.64.7,0,1.34.16,1.88.48s1.02.75,1.34,1.23c.38.48.64,1.02.8,1.61.16.59.27,1.13.27,1.61,0,.75-.11,1.34-.32,1.88l.05-.05Z"/>
    <rect class="cls-1" x="258.61" y="98.56" width="5.46" height="30.27"/>
    <path class="cls-1" d="m257,80.61c-.32-.16-.7-.21-1.07-.21-.38,0-.75.05-1.07.21-.32.16-.59.32-.86.59-.27.27-.43.54-.59.86-.16.32-.21.7-.21,1.07s.05.75.21,1.07c.16.32.32.59.59.86.27.27.54.43.86.59s.7.21,1.07.21.75-.05,1.07-.21.59-.32.86-.59.43-.54.59-.86c.16-.32.21-.7.21-1.07s-.05-.75-.21-1.07-.32-.59-.59-.86c-.27-.27-.54-.43-.86-.59Z"/>
    <path class="cls-1" d="m177.49,80.24c-.27-.11-.59-.21-.96-.21-.38,0-.64.05-.96.21-.27.11-.54.32-.75.54-.21.21-.38.48-.54.75-.11.27-.21.59-.21.96s.05.64.21.96c.11.27.32.54.54.75s.48.38.75.54c.27.11.59.21.96.21.38,0,.64-.05.96-.21.27-.11.54-.32.75-.54s.38-.48.54-.75c.11-.27.21-.59.21-.96,0-.38-.05-.64-.21-.96-.11-.27-.32-.54-.54-.75s-.48-.38-.75-.54Z"/>
    <path class="cls-1" d="m127.93,80.61c-.32-.16-.7-.21-1.07-.21-.38,0-.75.05-1.07.21-.32.16-.59.32-.86.59-.27.27-.43.54-.59.86-.16.32-.21.7-.21,1.07,0,.38.05.75.21,1.07.16.32.32.59.59.86s.54.43.86.59c.32.16.7.21,1.07.21.38,0,.75-.05,1.07-.21s.59-.32.86-.59.43-.54.59-.86c.16-.32.21-.7.21-1.07,0-.38-.05-.75-.21-1.07-.16-.32-.32-.59-.59-.86s-.54-.43-.86-.59Z"/>
  </g>
</svg>