<?xml version="1.0" encoding="UTF-8"?>
<svg id="Layer_1" xmlns="http://www.w3.org/2000/svg" version="1.1" viewBox="0 0 841.9 595.3">
  <!-- Generator: Adobe Illustrator 29.6.1, SVG Export Plug-In . SVG Version: 2.1.1 Build 9)  -->
  <defs>
    <style>
      .st0 {
        fill: #015275;
      }

      .st1 {
        fill: #f8cf2e;
      }

      .st2 {
        fill: #93b760;
      }

      .st3 {
        fill: #63a243;
      }

      .st4 {
        fill: #fada70;
      }

      .st5 {
        fill: #999697;
      }

      .st6 {
        fill: #7e7a7d;
      }

      .st7 {
        fill: #01689a;
      }
    </style>
  </defs>
  <polygon class="st6" points="584.8 392.3 604.3 411.8 667.3 348.7 730.4 411.8 749.8 392.3 667.3 309.8 584.8 392.3"/>
  <polygon class="st7" points="572.7 215.1 553.2 234.6 616.2 297.6 553.2 360.7 572.7 380.1 655.2 297.6 572.7 215.1"/>
  <polygon class="st4" points="792.9 347.8 804.7 336 766.4 297.6 804.7 259.3 792.9 247.4 742.7 297.6 792.9 347.8"/>
  <polygon class="st3" points="749.8 202.9 730.4 183.5 667.3 246.5 604.3 183.5 584.8 202.9 667.3 285.4 749.8 202.9"/>
  <polygon class="st1" points="762 380.1 781.5 360.7 718.4 297.6 781.5 234.6 762 215.1 679.5 297.6 762 380.1"/>
  <polygon class="st2" points="717.5 172 705.7 160.1 667.3 198.5 629 160.1 617.1 172 667.3 222.2 717.5 172"/>
  <polygon class="st5" points="617.1 423.3 629 435.1 667.3 396.8 705.7 435.1 717.5 423.3 667.3 373.1 617.1 423.3"/>
  <g>
    <path class="st0" d="M49.9,396.7c-.3.1-.7.2-1,.3-.4,0-.7.1-1.1.2-.4,0-.7,0-1,0-.9,0-1.8-.2-2.7-.5-.8-.3-1.6-.8-2.2-1.4-.6-.6-1.1-1.4-1.5-2.2-.4-.9-.5-1.9-.5-2.9s.2-2,.5-2.8c.3-.9.8-1.6,1.4-2.3.6-.6,1.3-1.1,2.2-1.5.9-.4,1.8-.5,2.8-.5s2.6.3,3.8,1l.2-2.5c-.7-.3-1.3-.5-2-.6s-1.4-.2-2.1-.2c-1.4,0-2.7.2-3.8.7-1.2.4-2.2,1.1-3,1.9-.9.8-1.5,1.8-2,2.9-.5,1.1-.7,2.4-.7,3.8s.2,2.8.7,3.9c.5,1.2,1.1,2.2,1.9,3,.8.8,1.8,1.5,3,1.9,1.2.4,2.5.7,3.9.7s1.2,0,2-.1c.4,0,.8,0,1.1-.2.4,0,.7-.2,1.1-.4l-.2-2.5c-.2.1-.5.3-.8.4Z"/>
    <path class="st0" d="M68.3,383.4c-.8-.8-1.7-1.5-2.7-2-1.1-.5-2.3-.7-3.7-.7s-2.6.2-3.7.7c-1.1.5-2,1.1-2.7,2-.7.8-1.3,1.8-1.7,3-.4,1.1-.6,2.4-.6,3.7s.2,2.7.6,3.8c.4,1.2,1,2.1,1.7,3,.7.8,1.7,1.5,2.7,1.9,1.1.5,2.3.7,3.7.7s2.6-.2,3.7-.7c1.1-.5,2-1.1,2.7-1.9.7-.8,1.3-1.8,1.7-3,.4-1.2.6-2.4.6-3.8s-.2-2.6-.6-3.7c-.4-1.1-1-2.1-1.7-3ZM67.5,392.7c-.2.9-.6,1.6-1.1,2.3-.5.7-1.1,1.2-1.9,1.6-.8.4-1.6.6-2.7.6s-1.9-.2-2.7-.6c-.8-.4-1.4-.9-1.9-1.6-.5-.7-.8-1.4-1.1-2.3-.2-.9-.3-1.7-.3-2.6s.1-1.8.4-2.7c.2-.9.6-1.6,1.1-2.3.5-.7,1.1-1.2,1.9-1.6.7-.4,1.6-.6,2.6-.6,1,0,1.9.2,2.6.6.8.4,1.4.9,1.9,1.6.5.7.9,1.4,1.1,2.3.2.9.4,1.8.4,2.7,0,.9-.1,1.8-.4,2.6Z"/>
    <polygon class="st0" points="84.3 396.1 78.6 381 74.3 381 74.3 399.2 76.9 399.2 76.9 383.4 76.9 383.4 83 399.2 85.5 399.2 91.5 383.4 91.6 383.4 91.6 399.2 94.2 399.2 94.2 381 89.9 381 84.3 396.1"/>
    <path class="st0" d="M108.3,382.2c-.6-.4-1.3-.7-2.2-.9-.8-.2-1.7-.3-2.6-.3h-4.8v18.2h2.6v-7.3h2.5c.8,0,1.6,0,2.4-.3.8-.2,1.5-.5,2.1-.9.6-.4,1.1-1,1.4-1.7.4-.7.5-1.5.5-2.5s-.2-1.9-.5-2.6c-.4-.7-.9-1.3-1.5-1.7ZM107.2,387.9c-.2.4-.5.7-.9,1-.4.3-.7.4-1.2.5-.4.1-.8.2-1.3.2h-2.6v-6.3h2.2c.4,0,.8,0,1.3.2.5.1.9.3,1.3.5.4.2.7.6,1,1,.3.4.4.9.4,1.5s-.1,1.1-.3,1.5Z"/>
    <polygon class="st0" points="113.5 399.2 123.7 399.2 123.7 396.9 116.1 396.9 116.1 390.9 123 390.9 123 388.6 116.1 388.6 116.1 383.3 123.7 383.3 123.7 381 113.5 381 113.5 399.2"/>
    <polygon class="st0" points="125.8 383.3 131.5 383.3 131.5 399.2 134.1 399.2 134.1 383.3 139.7 383.3 139.7 381 125.8 381 125.8 383.3"/>
    <rect class="st0" x="142.3" y="381" width="2.6" height="18.2"/>
    <polygon class="st0" points="147.5 383.3 153.2 383.3 153.2 399.2 155.8 399.2 155.8 383.3 161.5 383.3 161.5 381 147.5 381 147.5 383.3"/>
    <rect class="st0" x="164.1" y="381" width="2.6" height="18.2"/>
    <path class="st0" d="M185.6,383.4c-.8-.8-1.7-1.5-2.7-2-1.1-.5-2.3-.7-3.7-.7s-2.6.2-3.7.7c-1.1.5-2,1.1-2.7,2-.7.8-1.3,1.8-1.7,3-.4,1.1-.6,2.4-.6,3.7s.2,2.7.6,3.8c.4,1.2,1,2.1,1.7,3,.7.8,1.7,1.5,2.7,1.9,1.1.5,2.3.7,3.7.7s2.6-.2,3.7-.7c1.1-.5,2-1.1,2.7-1.9.7-.8,1.3-1.8,1.7-3,.4-1.2.6-2.4.6-3.8s-.2-2.6-.6-3.7c-.4-1.1-1-2.1-1.7-3ZM184.8,392.7c-.2.9-.6,1.6-1.1,2.3-.5.7-1.1,1.2-1.9,1.6-.8.4-1.6.6-2.7.6s-1.9-.2-2.7-.6c-.8-.4-1.4-.9-1.9-1.6-.5-.7-.8-1.4-1.1-2.3-.2-.9-.3-1.7-.3-2.6s.1-1.8.4-2.7c.3-.9.6-1.6,1.1-2.3.5-.7,1.1-1.2,1.9-1.6.7-.4,1.6-.6,2.6-.6,1,0,1.9.2,2.6.6.8.4,1.4.9,1.9,1.6.5.7.9,1.4,1.1,2.3.2.9.4,1.8.4,2.7,0,.9-.1,1.8-.3,2.6Z"/>
    <polygon class="st0" points="203.2 395.6 203.1 395.6 195.1 381 191.5 381 191.5 399.2 194.1 399.2 194.1 384.2 194.2 384.2 202.4 399.2 205.8 399.2 205.8 381 203.2 381 203.2 395.6"/>
    <rect class="st0" x="217.6" y="381" width="2.6" height="18.2"/>
    <polygon class="st0" points="236.5 395.6 236.4 395.6 228.4 381 224.8 381 224.8 399.2 227.4 399.2 227.4 384.2 227.5 384.2 235.7 399.2 239.1 399.2 239.1 381 236.5 381 236.5 395.6"/>
    <polygon class="st0" points="255.3 395.6 255.2 395.6 247.2 381 243.7 381 243.7 399.2 246.3 399.2 246.3 384.2 246.3 384.2 254.5 399.2 257.9 399.2 257.9 381 255.3 381 255.3 395.6"/>
    <path class="st0" d="M276.7,383.4c-.8-.8-1.7-1.5-2.7-2-1.1-.5-2.3-.7-3.7-.7s-2.6.2-3.7.7c-1.1.5-2,1.1-2.7,2s-1.3,1.8-1.7,3c-.4,1.1-.6,2.4-.6,3.7s.2,2.7.6,3.8c.4,1.2,1,2.1,1.7,3,.7.8,1.7,1.5,2.7,1.9,1.1.5,2.3.7,3.7.7s2.6-.2,3.7-.7c1.1-.5,2-1.1,2.7-1.9.7-.8,1.3-1.8,1.7-3,.4-1.2.6-2.4.6-3.8s-.2-2.6-.6-3.7c-.4-1.1-1-2.1-1.7-3ZM276,392.7c-.2.9-.6,1.6-1.1,2.3-.5.7-1.1,1.2-1.9,1.6-.8.4-1.6.6-2.7.6s-1.9-.2-2.7-.6c-.8-.4-1.4-.9-1.9-1.6-.5-.7-.8-1.4-1.1-2.3-.2-.9-.3-1.7-.3-2.6s.1-1.8.4-2.7c.3-.9.6-1.6,1.1-2.3.5-.7,1.1-1.2,1.9-1.6.7-.4,1.6-.6,2.6-.6,1,0,1.9.2,2.6.6.8.4,1.4.9,1.9,1.6.5.7.9,1.4,1.1,2.3.2.9.4,1.8.4,2.7,0,.9-.1,1.8-.3,2.6Z"/>
    <polygon class="st0" points="294.9 381 289.2 396.9 289.1 396.9 283.5 381 280.6 381 287.5 399.2 290.7 399.2 297.7 381 294.9 381"/>
    <path class="st0" d="M304.9,381l-7.8,18.2h2.7l1.8-4.6h8.9l1.9,4.6h2.8l-7.7-18.2h-2.7ZM302.6,392.4l3.6-9,3.6,9h-7.2Z"/>
    <polygon class="st0" points="314 383.3 319.7 383.3 319.7 399.2 322.3 399.2 322.3 383.3 327.9 383.3 327.9 381 314 381 314 383.3"/>
    <rect class="st0" x="330.6" y="381" width="2.6" height="18.2"/>
    <path class="st0" d="M352,383.4c-.8-.8-1.7-1.5-2.7-2-1.1-.5-2.3-.7-3.7-.7s-2.6.2-3.7.7-2,1.1-2.7,2c-.7.8-1.3,1.8-1.7,3-.4,1.1-.6,2.4-.6,3.7s.2,2.7.6,3.8c.4,1.2,1,2.1,1.7,3,.7.8,1.7,1.5,2.7,1.9,1.1.5,2.3.7,3.7.7s2.6-.2,3.7-.7c1.1-.5,2-1.1,2.7-1.9.7-.8,1.3-1.8,1.7-3,.4-1.2.6-2.4.6-3.8s-.2-2.6-.6-3.7c-.4-1.1-1-2.1-1.7-3ZM351.3,392.7c-.2.9-.6,1.6-1.1,2.3-.5.7-1.1,1.2-1.9,1.6-.8.4-1.6.6-2.7.6s-1.9-.2-2.7-.6c-.8-.4-1.4-.9-1.9-1.6-.5-.7-.8-1.4-1.1-2.3-.2-.9-.4-1.7-.4-2.6s.1-1.8.4-2.7c.3-.9.6-1.6,1.1-2.3.5-.7,1.1-1.2,1.9-1.6.7-.4,1.6-.6,2.6-.6,1,0,1.9.2,2.6.6.8.4,1.4.9,1.9,1.6.5.7.9,1.4,1.1,2.3.2.9.4,1.8.4,2.7,0,.9-.1,1.8-.3,2.6Z"/>
    <polygon class="st0" points="369.7 395.6 369.6 395.6 361.6 381 358 381 358 399.2 360.6 399.2 360.6 384.2 360.7 384.2 368.9 399.2 372.3 399.2 372.3 381 369.7 381 369.7 395.6"/>
    <path class="st0" d="M393.5,382.2c-.6-.4-1.3-.7-2.2-.9-.8-.2-1.7-.3-2.6-.3h-4.8v18.2h2.6v-7.3h2.5c.8,0,1.6,0,2.4-.3.8-.2,1.5-.5,2.1-.9.6-.4,1.1-1,1.4-1.7.4-.7.5-1.5.5-2.5s-.2-1.9-.5-2.6c-.4-.7-.9-1.3-1.5-1.7ZM392.4,387.9c-.2.4-.5.7-.9,1-.4.3-.7.4-1.2.5-.4.1-.8.2-1.3.2h-2.6v-6.3h2.2c.4,0,.8,0,1.3.2.5.1.9.3,1.3.5.4.2.7.6,1,1,.3.4.4.9.4,1.5s-.1,1.1-.3,1.5Z"/>
    <path class="st0" d="M407.2,390.7c-.1-.1-.3-.2-.4-.3-.2-.1-.3-.2-.5-.3h0c.5-.1,1-.3,1.5-.5.5-.2.9-.5,1.2-.9.3-.4.6-.8.8-1.2.2-.5.3-1,.3-1.5s0-1-.2-1.5c-.1-.4-.3-.8-.4-1.1-.2-.3-.4-.6-.7-.9-.3-.2-.6-.5-.9-.6-.3-.2-.7-.3-1.1-.4-.4-.1-.8-.2-1.2-.3-.4,0-.8-.1-1.3-.1-.4,0-.9,0-1.3,0h-4.5v18.2h2.6v-8.1h1.6c.4,0,.7,0,1,0,.3,0,.5,0,.8.2.2.1.5.3.7.5.2.2.4.6.6,1l2.8,6.3h3l-3.4-7.2c-.3-.6-.6-1-.8-1.2ZM403.3,388.8h-2.2v-5.5h2.5c1.2,0,2.1.2,2.7.7.6.5.9,1.1.9,2s-.3,1.6-1,2.1c-.7.5-1.7.8-2.9.8Z"/>
    <path class="st0" d="M428.8,383.4c-.8-.8-1.7-1.5-2.7-2-1.1-.5-2.3-.7-3.7-.7s-2.6.2-3.7.7c-1.1.5-2,1.1-2.7,2-.7.8-1.3,1.8-1.7,3-.4,1.1-.6,2.4-.6,3.7s.2,2.7.6,3.8c.4,1.2,1,2.1,1.7,3,.7.8,1.7,1.5,2.7,1.9,1.1.5,2.3.7,3.7.7s2.6-.2,3.7-.7c1.1-.5,2-1.1,2.7-1.9.7-.8,1.3-1.8,1.7-3,.4-1.2.6-2.4.6-3.8s-.2-2.6-.6-3.7c-.4-1.1-1-2.1-1.7-3ZM428,392.7c-.2.9-.6,1.6-1.1,2.3-.5.7-1.1,1.2-1.9,1.6-.7.4-1.6.6-2.7.6s-1.9-.2-2.7-.6c-.8-.4-1.4-.9-1.9-1.6-.5-.7-.8-1.4-1.1-2.3-.2-.9-.3-1.7-.3-2.6s.1-1.8.4-2.7c.3-.9.6-1.6,1.1-2.3.5-.7,1.1-1.2,1.9-1.6.7-.4,1.6-.6,2.6-.6,1,0,1.9.2,2.6.6.8.4,1.4.9,1.9,1.6.5.7.9,1.4,1.1,2.3.2.9.4,1.8.4,2.7,0,.9-.1,1.8-.3,2.6Z"/>
    <path class="st0" d="M442.6,391.4h3.8v5.5c-.2,0-.3,0-.5.1-.2,0-.3,0-.6.1-.2,0-.5,0-.8,0-.3,0-.7,0-1.1,0-.9,0-1.8-.2-2.7-.5-.8-.3-1.6-.8-2.2-1.4-.6-.6-1.1-1.4-1.5-2.2-.4-.9-.5-1.9-.5-2.9,0-1,.1-1.9.5-2.8.3-.9.8-1.6,1.4-2.3.6-.6,1.4-1.1,2.2-1.5.9-.4,1.8-.5,2.8-.5,1.2,0,2.2.1,2.9.3.8.2,1.5.5,2.1.9l.2-2.6c-.4-.1-.8-.2-1.1-.4-.4-.1-.7-.2-1.1-.3-.4,0-.9-.2-1.3-.2-.5,0-1.1,0-1.7,0-1.4,0-2.7.2-3.8.7-1.2.4-2.2,1.1-3,1.9-.9.8-1.5,1.8-2,2.9-.5,1.1-.7,2.4-.7,3.8s.2,2.8.7,3.9c.5,1.2,1.1,2.2,1.9,3,.8.8,1.8,1.5,3,1.9,1.2.4,2.5.7,3.9.7s1.4,0,1.9,0c.6,0,1.1-.1,1.5-.2.9-.2,1.6-.4,2.1-.5v-9.5h-6.4v2.1Z"/>
    <path class="st0" d="M462.2,390.7c-.1-.1-.3-.2-.4-.3-.2-.1-.3-.2-.5-.3h0c.5-.1,1-.3,1.5-.5.5-.2.9-.5,1.2-.9.3-.4.6-.8.8-1.2.2-.5.3-1,.3-1.5s0-1-.2-1.5c-.1-.4-.3-.8-.4-1.1-.2-.3-.4-.6-.7-.9-.3-.2-.6-.5-.9-.6-.3-.2-.7-.3-1.1-.4-.4-.1-.8-.2-1.2-.3-.4,0-.8-.1-1.3-.1-.4,0-.9,0-1.3,0h-4.5v18.2h2.6v-8.1h1.6c.4,0,.7,0,1,0,.3,0,.5,0,.8.2.2.1.5.3.7.5.2.2.4.6.6,1l2.8,6.3h3l-3.4-7.2c-.3-.6-.6-1-.8-1.2ZM458.3,388.8h-2.2v-5.5h2.5c1.2,0,2.1.2,2.7.7.6.5.9,1.1.9,2s-.3,1.6-1,2.1c-.7.5-1.7.8-2.9.8Z"/>
    <path class="st0" d="M475.3,381l-7.8,18.2h2.7l1.8-4.6h8.9l1.9,4.6h2.8l-7.7-18.2h-2.7ZM472.9,392.4l3.6-9,3.6,9h-7.2Z"/>
    <polygon class="st0" points="498.4 396.1 492.7 381 488.4 381 488.4 399.2 491 399.2 491 383.4 491 383.4 497 399.2 499.6 399.2 505.6 383.4 505.7 383.4 505.7 399.2 508.3 399.2 508.3 381 504 381 498.4 396.1"/>
    <path class="st0" d="M48.7,266.5c2.5-1.1,4.6-2.5,6.2-4.4,1.6-1.8,2.8-4.1,3.5-6.8.7-2.7,1.1-6,1.1-9.8v-25.1h-10.2v27.1c0,1.8-.1,3.4-.4,4.8-.3,1.4-.8,2.6-1.6,3.6-.8,1-1.9,1.9-3.3,2.5-1.4.7-3.3,1.2-5.5,1.7l1.3,8.7c3.5-.6,6.6-1.4,9.1-2.4Z"/>
    <path class="st0" d="M72.6,249.1c1,1.1,2.3,2,3.9,2.7,1.6.6,3.4.9,5.6.9h48.7c3.1,0,5.7-.4,7.8-1.1,2.1-.8,3.8-1.8,5.2-3.1,1.5,1.3,3.2,2.3,5.3,3.1,1.4.5,3.1.9,4.9,1.1,0,0,0,0,.1,0,.4,0,.9,0,1.5,0h62.8c2,0,3.6-.3,5-.9,1.4-.6,2.5-1.4,3.4-2.4,1.4,1,3,1.8,4.9,2.3,1.2.4,2.5.6,4,.8,0,0,0,0,.1,0,.4,0,.9,0,1.5,0h37.5v-32.3h-10.2v23.6h-26.2c-1.6,0-3.1-.1-4.6-.4-1.5-.3-2.9-.7-4.1-1.2,0-.4,0-.9.1-1.4,0-.5,0-.9,0-1.4v-19.3h-10.2v17.9c0,1.1,0,2-.3,2.8-.2.7-.5,1.3-.8,1.8-.4.4-.9.7-1.5.9-.6.2-1.4.3-2.2.3h-58.1c-1.8,0-3.6-.2-5.3-.5-1.7-.3-3.2-.9-4.6-1.6.2-.9.2-1.8.2-2.8,0-1.7-.2-3.3-.7-4.8-.5-1.5-1.3-3-2.3-4.4-1-1.4-2.3-2.9-3.8-4.3-1.5-1.4-3.3-2.9-5.4-4.4l12-20.7-7.5-4.8-17,28.6c2.4,1.4,4.5,2.8,6.4,4.1,1.9,1.3,3.5,2.5,4.8,3.7,1.3,1.2,2.3,2.4,3,3.5.7,1.1,1,2.3,1,3.4s-.1,1.4-.3,2.1c-.2.6-.6,1.1-1.2,1.6-.6.4-1.4.8-2.4,1-1,.2-2.3.4-3.9.4h-45.3c-.8,0-1.5,0-2.1-.3-.6-.2-1.1-.5-1.5-1-.4-.5-.7-1.2-.9-2-.2-.9-.3-1.9-.3-3.2v-41.3h-10.2v43.4c0,1.9.2,3.7.7,5.3.5,1.6,1.2,3,2.2,4.1Z"/>
    <path class="st0" d="M215,209.2c.5.5,1,.8,1.6,1.1.6.3,1.3.4,2,.4s1.4-.1,2-.4c.6-.3,1.1-.6,1.6-1.1.5-.5.8-1,1.1-1.6.3-.6.4-1.3.4-2s-.1-1.4-.4-2c-.3-.6-.6-1.1-1.1-1.6-.5-.5-1-.8-1.6-1.1-.6-.3-1.3-.4-2-.4s-1.4.1-2,.4c-.6.3-1.1.6-1.6,1.1s-.8,1-1.1,1.6-.4,1.3-.4,2,.1,1.4.4,2c.3.6.6,1.1,1.1,1.6Z"/>
    <path class="st0" d="M226.8,209.2c.5.5,1,.8,1.6,1.1.6.3,1.3.4,2,.4s1.4-.1,2-.4c.6-.3,1.1-.6,1.6-1.1.5-.5.8-1,1.1-1.6.3-.6.4-1.3.4-2s-.1-1.4-.4-2c-.3-.6-.6-1.1-1.1-1.6-.5-.5-1-.8-1.6-1.1-.6-.3-1.3-.4-2-.4s-1.4.1-2,.4c-.6.3-1.1.6-1.6,1.1-.5.5-.8,1-1.1,1.6-.3.6-.4,1.3-.4,2s.1,1.4.4,2c.3.6.6,1.1,1.1,1.6Z"/>
    <rect class="st0" x="285.2" y="196.2" width="10.2" height="56.5"/>
    <path class="st0" d="M324.3,272.7c.7,1.3,1.6,2.6,2.7,3.8,1.1,1.2,2.5,2.2,4,3.1,1.6.9,3.4,1.6,5.4,2.1s4.3.7,6.9.7,1.7,0,2.5,0c.8,0,1.5-.2,2.3-.3.8-.1,1.6-.3,2.4-.5.8-.2,1.7-.4,2.7-.6v-8c-1.6.3-3.3.6-4.9.9-1.7.2-3.1.4-4.3.4-2.1,0-3.9-.3-5.4-.9-1.5-.6-2.8-1.4-3.7-2.3-1-1-1.7-2.1-2.2-3.4-.5-1.3-.7-2.6-.7-4.1s.3-3.4.8-4.8c.5-1.4,1.3-2.5,2.2-3.4,1-.9,2.1-1.6,3.4-2,1.3-.4,2.8-.7,4.5-.7h24c4.5,0,7.8-1.6,10.1-4.9.7.6,1.5,1.3,2.4,1.9.9.6,1.9,1.2,3.1,1.7,1.2.5,2.5.9,3.9,1.2,1.5.3,3.1.5,5,.5s4.9-.4,6.9-1.3c2-.9,3.7-2.1,5.1-3.5s2.4-3.1,3.1-5c.7-1.9,1.1-3.9,1.1-5.9s-.2-2.6-.5-4c-.3-1.4-.8-2.7-1.4-4s-1.4-2.5-2.3-3.7c-.9-1.2-2-2.2-3.3-3-1.3-.9-2.7-1.6-4.3-2.1s-3.4-.8-5.3-.8-2.9.2-4.6.7c-1.7.5-3.4,1.4-5.2,2.9-1.8,1.4-3.5,3.5-5.1,6.1-1.7,2.6-3.1,6.1-4.4,10.4-.4,1.4-1.2,2.5-2.1,3.2-1,.7-2.1,1-3.4,1h-1.5c-1,0-1.8-.3-2.4-1-.6-.7-1.1-1.6-1.6-2.8-.4-1.2-.7-2.5-1-4-.3-1.5-.5-3-.7-4.5-.3-2.1-.8-3.9-1.6-5.6-.8-1.7-1.8-3.1-3.1-4.3-1.3-1.2-2.8-2.1-4.6-2.7-1.8-.6-3.8-.9-6-.9s-4.3.2-6.2.6c-1.8.4-3.7.9-5.5,1.4v8.1c.9-.4,1.8-.7,2.7-.9.9-.2,1.8-.5,2.7-.6s1.7-.3,2.4-.4c.8,0,1.4-.1,1.9-.1,1.7,0,3.1.4,4.1,1.1,1,.7,1.8,1.6,2.4,2.7.6,1.1,1,2.3,1.2,3.6.2,1.3.5,2.6.6,3.8.2,1.6.5,2.9.8,3.9.3,1,.6,1.9,1,2.5h-7.8c-3.2,0-6.1.4-8.7,1.3-2.6.9-4.8,2.2-6.7,3.9-1.9,1.7-3.3,3.8-4.3,6.3s-1.5,5.4-1.5,8.6.2,2.8.5,4.3c.3,1.4.8,2.8,1.6,4.2ZM381.4,236.6c.6-1.6,1.3-3.1,2.2-4.3.8-1.3,1.8-2.3,2.8-3,1.1-.8,2.2-1.2,3.5-1.2s2.5.3,3.5.9c1,.6,1.9,1.4,2.5,2.3.7.9,1.2,1.9,1.5,3,.3,1.1.5,2.1.5,3,0,1.4-.2,2.5-.6,3.5-.4.9-1,1.7-1.7,2.3-.7.6-1.6,1-2.7,1.3-1,.3-2.2.4-3.5.4s-1.8,0-2.7-.3-1.9-.4-2.8-.7c-.9-.3-1.7-.6-2.4-1-.7-.4-1.2-.7-1.6-1.1.3-1.7.8-3.4,1.4-5Z"/>
    <path class="st0" d="M419,249.1c1,1.1,2.3,2,3.9,2.7,1.6.6,3.4.9,5.6.9h24.5v-32.3h-10.2v23.6h-11.8c-.8,0-1.5,0-2.1-.3s-1.1-.5-1.5-1c-.4-.5-.7-1.2-.9-2-.2-.9-.3-1.9-.3-3.2v-41.3h-10.2v43.4c0,1.9.2,3.7.7,5.3.5,1.6,1.2,3,2.2,4.1Z"/>
    <path class="st0" d="M444.2,209.2c.5.5,1,.8,1.6,1.1.6.3,1.3.4,2,.4s1.4-.1,2-.4c.6-.3,1.1-.6,1.6-1.1s.8-1,1.1-1.6c.3-.6.4-1.3.4-2s-.1-1.4-.4-2c-.3-.6-.6-1.1-1.1-1.6-.5-.5-1-.8-1.6-1.1-.6-.3-1.3-.4-2-.4s-1.4.1-2,.4c-.6.3-1.1.6-1.6,1.1-.5.5-.8,1-1.1,1.6-.3.6-.4,1.3-.4,2s.1,1.4.4,2c.3.6.6,1.1,1.1,1.6Z"/>
    <path class="st0" d="M469.3,267c2.2-.8,4.1-1.9,5.6-3.1,1.6-1.3,2.8-2.8,3.8-4.7s1.6-4,2.1-6.5h28.4v-32.3h-10.2v23.6h-17.7v-23.6h-10.2v27.1c0,1.8-.1,3.4-.4,4.8-.3,1.4-.8,2.6-1.6,3.6-.8,1-1.9,1.9-3.3,2.5-1.4.7-3.3,1.2-5.5,1.7l1.3,8.7c2.9-.4,5.5-1.1,7.6-1.9Z"/>
    <path class="st0" d="M58,296.7c-.5-.5-1-.8-1.6-1.1s-1.3-.4-2-.4-1.4.1-2,.4c-.6.3-1.1.6-1.6,1.1-.5.5-.8,1-1.1,1.6-.3.6-.4,1.3-.4,2s.1,1.4.4,2c.3.6.6,1.1,1.1,1.6.5.5,1,.8,1.6,1.1.6.3,1.3.4,2,.4s1.4-.1,2-.4,1.1-.6,1.6-1.1.8-1,1.1-1.6c.3-.6.4-1.3.4-2s-.1-1.4-.4-2c-.3-.6-.6-1.1-1.1-1.6Z"/>
    <path class="st0" d="M62.7,303.8c.5.5,1,.8,1.6,1.1s1.3.4,2,.4,1.4-.1,2-.4c.6-.3,1.1-.6,1.6-1.1s.8-1,1.1-1.6c.3-.6.4-1.3.4-2s-.1-1.4-.4-2c-.3-.6-.6-1.1-1.1-1.6-.5-.5-1-.8-1.6-1.1-.6-.3-1.3-.4-2-.4s-1.4.1-2,.4-1.1.6-1.6,1.1c-.5.5-.8,1-1.1,1.6-.3.6-.4,1.3-.4,2s.1,1.4.4,2c.3.6.6,1.1,1.1,1.6Z"/>
    <path class="st0" d="M231.7,348.4c.6.2,1.3.3,2,.5.2.1.5.3.8.3.4,0,.9,0,1.5,0h125.9v-17c0-2.6-.4-5-1.1-7.1-.7-2.1-1.8-3.8-3.2-5.3-1.4-1.4-3.1-2.5-5.1-3.3-2-.8-4.3-1.1-6.8-1.1s-5,.4-7.1,1.3c-2.2.9-4.1,2.1-5.7,3.6-1.6,1.5-2.8,3.3-3.7,5.4-.9,2.1-1.3,4.3-1.3,6.7s.2,3,.6,4.5c.4,1.5.9,2.7,1.5,3.7h-91.3c-1.6,0-3.1-.1-4.6-.4-1.5-.3-2.9-.7-4.1-1.2,0-.4,0-.9.1-1.4,0-.5,0-.9,0-1.4v-19.3h-10.2v17.9c0,1.1,0,2-.3,2.8-.2.7-.5,1.3-.8,1.8-.4.4-.9.7-1.5.9-.6.2-1.4.3-2.2.3-1.3,0-2.7-.2-4.1-.6-1.4-.4-2.8-1-4.2-1.8,0-.3,0-.6,0-1s0-.6,0-1v-15h-10.2v13.6c0,1.1,0,2-.3,2.8-.2.7-.5,1.3-.8,1.8-.4.4-.9.7-1.5.9-.6.2-1.4.3-2.2.3-1.3,0-2.7-.2-4.1-.6-1.4-.4-2.9-1-4.3-1.8,0-.3,0-.6,0-.9v-12.4h-10.2v10.1c0,1.1,0,2-.3,2.8-.2.7-.5,1.3-.8,1.8-.4.4-.9.7-1.5.9-.6.2-1.4.3-2.2.3h-8.1c-.2,0-.4,0-.5,0-.2,0-.3,0-.5,0h-83.3c-.8,0-1.5,0-1.9-.2-.5-.2-.9-.4-1.1-.8-.3-.4-.5-.9-.6-1.5,0-.6-.1-1.4-.1-2.3v-25.4h-10.1v4.4c-1.5.4-3.2.8-5,1.3-1.8.5-3.6,1.2-5.4,1.9-1.8.7-3.6,1.6-5.3,2.6-1.7,1-3.2,2.1-4.5,3.4-1.3,1.3-2.4,2.7-3.2,4.3-.8,1.6-1.2,3.4-1.2,5.4s.5,4.2,1.4,5.8c.9,1.6,2.1,2.9,3.6,4,1.5,1,3.1,1.8,4.9,2.3,1.8.5,3.6.7,5.3.7s3.4-.2,5-.6c1.6-.4,3.3-1,5-1.9.3.7.8,1.4,1.4,2s1.3,1.2,2.2,1.6c.9.5,2,.8,3.3,1.1,1.3.3,2.8.4,4.6.4h85.1c.2,0,.4,0,.5,0,.2,0,.3,0,.5,0h11.6c2.2,0,4.1-.4,5.5-1.1,1.5-.7,2.7-1.7,3.6-2.9,1.5,1.2,3.4,2.2,5.5,2.9,2.1.7,4.5,1.1,7.1,1.1h1.7c2.2,0,4.1-.4,5.5-1.1,1.5-.7,2.6-1.7,3.6-2.9,1.5,1.2,3.4,2.1,5.4,2.9,2.1.7,4.4,1.1,7,1.1h1.7c2,0,3.6-.3,5-.9,1.4-.6,2.5-1.4,3.4-2.4,1.4,1,3,1.8,4.9,2.3ZM338,329c.4-1,.9-1.9,1.5-2.7.6-.7,1.4-1.3,2.3-1.8.9-.4,1.8-.6,2.8-.6s1.8.2,2.6.5c.8.3,1.6.9,2.2,1.7.6.8,1.2,1.8,1.6,3.1.4,1.3.6,2.9.6,4.8v6.8h-5.1c-1.4,0-2.7-.2-3.8-.6-1.1-.4-2.1-1-2.8-1.7-.8-.7-1.4-1.6-1.8-2.6-.4-1-.6-2.1-.6-3.4s.2-2.4.6-3.4ZM61.7,336.2c-1,.7-2.3,1.2-3.7,1.7-1.4.4-2.8.6-4.3.6s-1.6,0-2.4-.3c-.8-.2-1.5-.5-2.2-.9-.6-.4-1.2-1-1.6-1.7-.4-.7-.6-1.6-.6-2.6s.3-2.4,1-3.4c.7-1,1.7-2,3-2.8,1.3-.8,2.9-1.6,4.7-2.2,1.8-.6,3.8-1.2,6.1-1.7v13.3Z"/>
    <path class="st0" d="M347.8,297.6c-.6-.3-1.3-.4-2-.4s-1.4.1-2,.4c-.6.3-1.1.6-1.6,1.1-.5.5-.8,1-1.1,1.6-.3.6-.4,1.3-.4,2s.1,1.4.4,2c.3.6.6,1.1,1.1,1.6.5.5,1,.8,1.6,1.1.6.3,1.3.4,2,.4s1.4-.1,2-.4c.6-.3,1.1-.6,1.6-1.1s.8-1,1.1-1.6c.3-.6.4-1.3.4-2s-.1-1.4-.4-2c-.3-.6-.6-1.1-1.1-1.6-.5-.5-1-.8-1.6-1.1Z"/>
    <path class="st0" d="M404.1,297.6c-.6-.3-1.3-.4-2-.4s-1.4.1-2,.4c-.6.3-1.1.6-1.6,1.1-.5.5-.8,1-1.1,1.6-.3.6-.4,1.3-.4,2s.1,1.4.4,2c.3.6.6,1.1,1.1,1.6.5.5,1,.8,1.6,1.1.6.3,1.3.4,2,.4s1.4-.1,2-.4c.6-.3,1.1-.6,1.6-1.1.5-.5.8-1,1.1-1.6.3-.6.4-1.3.4-2s-.1-1.4-.4-2c-.3-.6-.6-1.1-1.1-1.6-.5-.5-1-.8-1.6-1.1Z"/>
    <path class="st0" d="M458.2,346.6c.9.6,1.9,1,2.9,1.5s2.3.7,3.6,1c1.1.2,2.3.3,3.6.3.1,0,.2,0,.4,0,.1,0,.3,0,.4,0h19.7v-56.5h-10.2v47.9h-9.4c-1.9,0-3.7-.2-5.4-.5-1.7-.4-3.3-.9-4.7-1.7.2-.7.4-1.5.5-2.2.1-.8.2-1.5.2-2.3,0-1.3-.2-2.6-.5-4-.3-1.4-.8-2.7-1.4-4-.6-1.3-1.4-2.5-2.3-3.7-.9-1.2-2-2.2-3.3-3-1.3-.9-2.7-1.6-4.3-2.1s-3.4-.8-5.3-.8-2.9.2-4.6.7c-1.7.5-3.4,1.4-5.2,2.9-1.8,1.4-3.5,3.5-5.1,6.1-1.7,2.6-3.1,6.1-4.4,10.4-.4,1.4-1.2,2.5-2.1,3.2-1,.7-2.1,1-3.4,1h-1.9c-1.6,0-3.1-.1-4.6-.4-1.5-.3-2.9-.7-4.1-1.2,0-.4,0-.9.1-1.4,0-.5,0-.9,0-1.4v-19.3h-10.2v17.9c0,1.1,0,2-.3,2.8-.2.7-.5,1.3-.8,1.8-.4.4-.9.7-1.5.9-.6.2-1.4.3-2.2.3h-6.2c-.8,0-1.5,0-2.1-.3s-1.1-.5-1.5-1-.7-1.2-.9-2c-.2-.9-.3-1.9-.3-3.2v-41.3h-10.2v43.4c0,1.9.2,3.7.7,5.3.5,1.6,1.2,3,2.2,4.1,1,1.1,2.3,2,3.9,2.7,1.6.6,3.4.9,5.6.9h12.2c2,0,3.6-.3,5-.9,1.4-.6,2.5-1.4,3.4-2.4,1.4,1,3,1.8,4.9,2.3,1.8.6,4.1.9,6.7.9h3.3c4.5,0,7.8-1.6,10.1-4.9.7.6,1.5,1.3,2.4,1.9.9.6,1.9,1.2,3.1,1.7,1.2.5,2.5.9,3.9,1.2,1.5.3,3.1.5,5,.5,2.7,0,5-.5,7-1.4,2-.9,3.7-2.1,5.1-3.7.7.7,1.5,1.3,2.4,1.8ZM449.7,337.3c-.4.9-1,1.7-1.7,2.3-.7.6-1.6,1-2.7,1.3-1,.3-2.2.4-3.5.4s-1.8,0-2.7-.3-1.9-.4-2.8-.7c-.9-.3-1.7-.6-2.4-1-.7-.4-1.2-.7-1.6-1.1.3-1.7.8-3.4,1.4-5,.6-1.6,1.3-3.1,2.2-4.3.8-1.3,1.8-2.3,2.8-3,1.1-.8,2.2-1.2,3.5-1.2s2.5.3,3.5.9c1,.6,1.9,1.4,2.5,2.3.7.9,1.2,1.9,1.5,3,.3,1.1.5,2.1.5,3,0,1.4-.2,2.5-.6,3.5Z"/>
    <rect class="st0" x="499" y="292.8" width="10.2" height="56.5"/>
    <path class="st0" d="M496,259.3c-.6-.3-1.3-.4-2-.4s-1.4.1-2,.4c-.6.3-1.1.6-1.6,1.1-.5.5-.8,1-1.1,1.6-.3.6-.4,1.3-.4,2s.1,1.4.4,2c.3.6.6,1.1,1.1,1.6.5.5,1,.8,1.6,1.1s1.3.4,2,.4,1.4-.1,2-.4c.6-.3,1.1-.6,1.6-1.1.5-.5.8-1,1.1-1.6.3-.6.4-1.3.4-2s-.1-1.4-.4-2c-.3-.6-.6-1.1-1.1-1.6-.5-.5-1-.8-1.6-1.1Z"/>
    <path class="st0" d="M347.6,258.6c-.5-.2-1.1-.4-1.8-.4s-1.2.1-1.8.4c-.5.2-1,.6-1.4,1-.4.4-.7.9-1,1.4-.2.5-.4,1.1-.4,1.8s.1,1.2.4,1.8c.2.5.6,1,1,1.4s.9.7,1.4,1c.5.2,1.1.4,1.8.4s1.2-.1,1.8-.4c.5-.2,1-.6,1.4-1,.4-.4.7-.9,1-1.4.2-.5.4-1.1.4-1.8s-.1-1.2-.4-1.8c-.2-.5-.6-1-1-1.4-.4-.4-.9-.7-1.4-1Z"/>
    <path class="st0" d="M255.1,259.3c-.6-.3-1.3-.4-2-.4s-1.4.1-2,.4c-.6.3-1.1.6-1.6,1.1-.5.5-.8,1-1.1,1.6-.3.6-.4,1.3-.4,2s.1,1.4.4,2c.3.6.6,1.1,1.1,1.6.5.5,1,.8,1.6,1.1.6.3,1.3.4,2,.4s1.4-.1,2-.4,1.1-.6,1.6-1.1c.5-.5.8-1,1.1-1.6.3-.6.4-1.3.4-2s-.1-1.4-.4-2c-.3-.6-.6-1.1-1.1-1.6s-1-.8-1.6-1.1Z"/>
  </g>
</svg>